<svg version="1.1" id="Layer_1" xmlns="http://www.w3.org/2000/svg" xmlns:xlink="http://www.w3.org/1999/xlink" x="0px" y="0px"
	 width="100%" viewBox="0 0 1024 1024" enable-background="new 0 0 1024 1024" xml:space="preserve">
<path fill="#000000" opacity="1.000000" stroke="none" 
	d="
M586.583618,672.455688 
	C586.917358,668.664001 586.422485,665.389648 585.161255,662.256897 
	C583.324280,657.694031 581.742676,653.849182 574.922485,655.139771 
	C567.322449,656.577820 562.256226,652.578308 560.879700,646.291748 
	C559.374512,639.417664 562.669312,633.783264 569.724060,631.007874 
	C572.666443,629.850403 575.617188,628.675781 578.440918,627.262756 
	C585.089783,623.935608 587.291870,617.788330 584.429626,610.996704 
	C579.419739,599.109192 566.512573,593.478516 554.219055,597.861450 
	C547.839111,600.136169 542.399658,603.878174 537.490479,608.520142 
	C510.175842,634.348328 488.817017,663.993347 473.795135,698.854004 
	C441.566895,773.644714 405.870728,846.877686 371.514832,920.711670 
	C368.001831,928.261475 364.536926,935.833862 360.997986,943.371399 
	C358.912567,947.813171 355.714966,951.046936 350.747650,952.119446 
	C342.576141,953.883911 335.793121,948.073364 334.577148,939.267029 
	C332.844391,926.718079 334.300140,914.300842 335.910675,901.995483 
	C339.961548,871.044006 345.862915,840.389832 352.796875,809.957825 
	C358.666656,784.196350 364.968536,758.555420 373.154022,733.375854 
	C387.500305,689.245117 418.210175,663.023315 461.969788,650.788147 
	C466.623444,649.486938 469.772217,647.209412 472.528534,643.301697 
	C487.067230,622.689697 503.257965,603.488647 522.184448,586.706848 
	C522.543457,586.388489 522.774414,585.925720 523.286133,585.229675 
	C493.637604,544.026489 486.301697,499.260162 503.613495,451.177704 
	C516.045288,416.649261 538.684570,390.461395 571.279785,373.573212 
	C633.233704,341.473755 715.497986,362.363403 754.708923,424.647430 
	C792.894592,485.303009 780.458130,581.346069 698.852051,626.060669 
	C702.313843,628.247437 706.135376,628.658447 709.713684,629.635071 
	C739.578613,637.785339 769.356140,646.189514 797.833374,658.563232 
	C834.794006,674.623108 855.131165,703.297668 861.343323,742.560791 
	C865.272278,767.393250 863.969604,792.242676 861.448059,817.126587 
	C856.793640,863.059265 847.211792,907.972168 834.179443,952.196960 
	C832.199219,958.916870 828.445312,962.127136 822.811951,962.404358 
	C812.700684,962.901855 806.709167,955.829102 809.278625,946.001953 
	C813.986084,927.997681 819.168335,910.117065 822.992432,891.887817 
	C827.901001,868.488892 831.748230,844.928589 834.833862,821.211792 
	C837.333435,802.000122 838.506042,782.751709 837.537964,763.464539 
	C836.251587,737.835266 829.509583,714.230957 809.387573,696.334900 
	C799.607239,687.636536 787.910339,682.509460 775.966675,677.717407 
	C747.329956,666.227722 717.480774,658.694641 687.803833,650.610840 
	C680.869812,648.722046 675.123535,645.594299 672.016174,638.799194 
	C671.076233,636.743713 669.781738,636.393860 667.601562,636.930115 
	C657.557190,639.400879 647.277893,640.366394 636.991394,640.950684 
	C626.830811,641.527710 616.754944,640.004211 606.677673,638.900940 
	C605.851562,638.810425 605.052673,638.505005 604.279846,639.255920 
	C603.777405,640.902283 605.121216,641.982544 605.779541,643.231323 
	C618.484619,667.330139 613.458557,692.360229 591.422119,708.417175 
	C576.481201,719.303894 563.326843,732.525085 547.232178,741.852905 
	C545.243103,743.005676 544.065186,744.776611 543.528564,746.971558 
	C533.498230,788.000793 522.209534,828.688904 510.415161,869.240417 
	C510.098694,870.328369 509.995148,871.478210 509.809448,872.504395 
	C511.482483,874.287292 513.432617,873.604187 515.157288,873.606812 
	C581.487244,873.707214 647.817383,873.731323 714.147156,873.905640 
	C718.252869,873.916504 719.890991,872.607849 720.829956,868.566528 
	C727.519714,839.776001 733.955688,810.933411 739.756042,781.949646 
	C741.582703,772.822144 745.929443,768.601379 753.319031,768.682434 
	C761.674622,768.774170 767.382019,775.490234 765.680847,783.688477 
	C760.855957,806.940674 755.861633,830.157715 750.924622,853.386597 
	C748.715637,863.780212 746.441711,874.160339 744.273926,884.562561 
	C741.778442,896.536926 737.320251,900.284851 725.066040,900.281860 
	C690.567810,900.273315 656.069519,900.230408 621.571289,900.169739 
	C592.072876,900.117859 562.574402,900.057861 533.076355,899.925720 
	C524.082092,899.885437 515.082458,899.740662 506.098236,899.348145 
	C502.298706,899.182190 500.574677,900.441223 499.440948,904.184814 
	C494.620422,920.102417 489.428619,935.907532 484.387512,951.758484 
	C483.260193,955.303284 481.843903,958.658142 478.635071,960.866638 
	C473.940887,964.097290 468.073822,964.161865 463.620056,961.072205 
	C459.146362,957.968750 457.254639,952.748352 459.139618,946.333435 
	C463.124908,932.770813 467.490753,919.320374 471.664062,905.812683 
	C489.185791,849.099792 505.957062,792.175964 519.454102,734.343262 
	C520.965210,727.868347 524.322998,723.381836 530.487793,720.561157 
	C539.797791,716.301453 547.897949,710.110901 555.507812,703.316345 
	C561.852173,697.651855 568.367493,692.260437 575.580322,687.683044 
	C581.040588,684.217957 585.313110,679.593933 586.583618,672.455688 
M545.815552,569.675171 
	C547.320557,571.686707 548.946777,572.519043 551.765991,571.949524 
	C559.480774,570.391235 567.289429,570.193481 574.974731,572.376770 
	C593.887146,577.749390 605.814392,590.023071 610.916199,608.966248 
	C611.514465,611.187622 611.494690,613.621521 614.881104,613.687805 
	C618.359558,613.755920 621.823120,614.378967 625.303162,614.605042 
	C651.315430,616.294800 675.204041,609.267456 696.981812,595.609619 
	C736.058411,571.103027 756.236877,522.189087 747.422119,477.016357 
	C734.581116,411.210663 668.797363,373.168579 606.402771,388.811371 
	C555.715393,401.519043 525.521423,444.356842 521.441528,492.504822 
	C519.013245,521.161316 527.151733,546.787415 545.815552,569.675171 
M395.712402,807.284546 
	C414.483124,767.220703 433.324249,727.187744 450.326447,686.518799 
	C447.307373,684.728210 445.880493,685.959717 444.452972,686.640198 
	C438.877686,689.297852 433.593048,692.453369 428.681519,696.215271 
	C412.120789,708.899475 402.579865,726.242859 396.521484,745.666443 
	C386.421844,778.046692 378.796204,811.058411 372.368805,844.346375 
	C371.237183,850.207214 369.430359,856.009949 370.397736,862.318115 
	C378.733826,844.201233 387.069916,826.084351 395.712402,807.284546 
z"/>
<path fill="#000000" opacity="1.000000" stroke="none" 
	d="
M164.103638,342.751587 
	C146.349258,306.613586 159.001572,263.971863 193.853882,244.257401 
	C200.289261,240.617203 202.057419,236.315125 202.579102,229.987823 
	C205.327194,196.657745 233.925613,153.762772 285.397034,146.726349 
	C300.122650,144.713303 314.597900,145.824463 328.721008,150.470016 
	C331.884277,151.510544 333.309662,150.704544 334.944183,147.860046 
	C354.554688,113.731934 383.950134,93.326744 422.846313,87.969940 
	C473.702454,80.966003 525.771729,105.786797 548.471130,155.392715 
	C549.371033,157.359329 550.613953,159.325745 550.879456,161.397079 
	C551.737549,168.091873 555.806641,170.047455 561.981995,170.632401 
	C601.162964,174.343857 636.990662,207.564987 641.574097,251.081772 
	C646.168884,294.704834 620.111267,336.846954 579.257812,349.833771 
	C575.626343,350.988159 571.872620,351.847107 568.116028,352.500458 
	C559.875916,353.933594 553.220825,349.391785 551.841980,341.623657 
	C550.592712,334.585663 555.299805,328.380035 563.309448,326.721680 
	C572.750854,324.766876 581.350220,320.937378 589.168701,315.346680 
	C608.050293,301.845245 616.051147,283.140259 616.006714,260.285309 
	C615.947815,229.957703 594.123596,204.029648 564.695679,197.875458 
	C559.240112,196.734543 553.700317,195.882477 547.895813,197.012970 
	C539.591553,198.630325 533.226685,193.863327 530.681763,184.765427 
	C527.064758,171.834778 522.271851,159.476425 513.830688,148.839645 
	C498.640686,129.698669 478.787811,118.309288 454.769348,114.648178 
	C423.045776,109.812599 395.421875,118.522430 372.709686,141.452682 
	C364.186310,150.057953 357.771423,160.187790 353.511353,171.592316 
	C349.380676,182.650406 341.615479,185.663162 330.957092,180.300308 
	C289.156525,159.267944 240.932739,181.448090 230.023972,226.810486 
	C228.430283,233.437576 227.658691,240.138229 229.035080,247.048569 
	C230.336945,253.584839 225.728394,259.660828 218.178055,262.340088 
	C207.408310,266.161743 198.003799,271.974762 191.437958,281.539978 
	C180.599380,297.329742 179.508545,314.400940 187.659851,331.261414 
	C195.838791,348.179047 210.595490,356.335999 229.284454,356.613647 
	C250.111649,356.923096 270.946899,356.669312 291.778534,356.710907 
	C299.616486,356.726532 304.307587,359.810181 306.149475,367.259491 
	C314.470093,400.911682 348.777100,428.596222 390.259888,427.062958 
	C419.133270,425.995728 442.601257,414.403595 459.921478,391.001099 
	C464.056152,385.414459 469.637634,383.474640 476.201843,384.955566 
	C481.250366,386.094513 483.867462,389.955902 484.996063,394.843475 
	C485.979095,399.100555 484.235931,402.725952 482.023804,406.099976 
	C472.449677,420.702667 458.914459,430.832001 443.977448,439.274933 
	C427.118134,448.804443 408.797119,453.704529 389.578613,453.972504 
	C347.382477,454.560852 302.861328,429.604889 285.308411,389.056519 
	C283.414276,384.680908 280.961304,383.197021 276.271393,383.281433 
	C261.110901,383.554169 245.937347,383.618927 230.777817,383.314880 
	C200.943420,382.716492 178.609268,369.446136 164.103638,342.751587 
z"/>
<path fill="#000000" opacity="1.000000" stroke="none" 
	d="
M470.702759,277.671539 
	C447.816803,308.405334 425.152588,338.857483 402.473053,369.298218 
	C399.675903,373.052521 396.784027,376.722504 392.055145,378.254913 
	C381.761322,381.590637 373.478149,373.318787 375.996765,361.989136 
	C380.246002,342.874573 384.664490,323.797546 389.049774,304.713501 
	C389.491394,302.791718 390.107941,300.920746 389.651459,298.379547 
	C379.700928,298.379547 369.749695,298.379272 359.798431,298.379700 
	C356.467438,298.379852 353.133026,298.285767 349.806274,298.405243 
	C344.750580,298.586731 340.412903,297.127960 338.067078,292.445984 
	C335.611603,287.545227 335.585510,282.345490 338.839111,277.750580 
	C345.281647,268.652039 351.993744,259.744751 358.564911,250.736877 
	C381.224213,219.674881 403.870728,188.603546 426.522552,157.536087 
	C430.180389,152.519318 434.751923,149.226532 441.312225,150.390228 
	C449.099243,151.771500 453.409760,157.948654 451.645325,165.685013 
	C446.847595,186.721527 441.822632,207.706268 436.863678,228.705856 
	C436.447235,230.469406 435.856903,232.191055 436.365173,234.657822 
	C443.083466,234.657822 449.866882,234.657135 456.650330,234.658051 
	C462.812653,234.658890 468.976166,234.736099 475.136993,234.641342 
	C480.738464,234.555176 485.391510,236.280823 488.005890,241.490768 
	C490.538879,246.538391 489.897430,251.604034 486.676971,256.117554 
	C481.553070,263.298859 476.184753,270.305725 470.702759,277.671539 
M375.867523,270.209839 
	C373.326080,273.813751 376.129028,273.601562 378.364899,273.613464 
	C386.694580,273.657806 395.053802,274.083649 403.347443,273.537933 
	C415.020721,272.769775 420.632385,279.735535 417.626831,291.713104 
	C415.824738,298.894714 414.423737,306.176941 412.842468,313.413940 
	C413.059906,313.515259 413.277344,313.616547 413.494812,313.717865 
	C426.746948,295.583221 439.999115,277.448578 453.960754,258.343048 
	C442.935120,258.343048 433.287384,258.493866 423.646423,258.302490 
	C413.077759,258.092712 407.901550,251.299667 410.175537,241.003723 
	C411.957550,232.935211 413.766052,224.872528 415.869354,215.431046 
	C402.122955,234.261139 389.202545,251.959808 375.867523,270.209839 
z"/>
<path fill="#000000" opacity="1.000000" stroke="none" 
	d="
M682.247620,292.697113 
	C686.909790,285.178192 693.414062,282.249146 700.418457,284.242737 
	C707.740662,286.326721 712.309143,292.184052 712.327576,299.511627 
	C712.346191,306.908722 708.077026,312.976349 701.204407,314.809692 
	C695.382874,316.362610 689.890137,315.418579 685.569824,310.980530 
	C680.579590,305.854248 679.651367,299.727142 682.247620,292.697113 
z"/>
<path fill="#000000" opacity="1.000000" stroke="none" 
	d="
M782.874878,285.766968 
	C789.972717,290.593170 792.354919,296.887817 790.209717,304.416107 
	C788.413147,310.720581 782.905029,315.057251 776.316650,315.354370 
	C768.613342,315.701752 762.757690,312.178253 760.453369,305.160858 
	C758.406738,298.928314 759.177795,292.802643 764.135864,288.152039 
	C769.490173,283.129730 775.814392,282.250580 782.874878,285.766968 
z"/>
<path fill="#000000" opacity="1.000000" stroke="none" 
	d="
M839.096619,294.487976 
	C842.763794,286.574860 849.112183,282.702332 856.174561,283.798126 
	C863.784729,284.978943 868.824829,290.431213 869.624573,298.348022 
	C870.350952,305.539215 866.584534,311.775116 859.574097,314.404663 
	C854.252319,316.400909 848.975464,315.921448 844.460571,312.316498 
	C838.813782,307.807648 837.247803,301.789307 839.096619,294.487976 
z"/>
</svg>